<?xml version="1.0" standalone="no"?>
<!DOCTYPE svg PUBLIC "-//W3C//DTD SVG 20010904//EN"
 "http://www.w3.org/TR/2001/REC-SVG-20010904/DTD/svg10.dtd">
<svg version="1.0" xmlns="http://www.w3.org/2000/svg"
 width="225.000000pt" height="225.000000pt" viewBox="0 0 225.000000 225.000000"
 preserveAspectRatio="xMidYMid meet">
<metadata>
Created by potrace 1.14, written by Peter Selinger 2001-2017
</metadata>
<g transform="translate(0.000000,225.000000) scale(0.100000,-0.100000)"
fill="#000000" stroke="none">
<path d="M1297 1971 c-102 -155 -71 -332 82 -472 135 -124 314 -177 457 -134
56 16 122 68 154 121 26 41 21 52 -12 31 -12 -9 -47 -22 -77 -31 -147 -43
-304 6 -432 135 -94 94 -131 173 -138 298 l-6 95 -28 -43z"/>
<path d="M898 1878 c-52 -65 -66 -91 -93 -172 -96 -285 81 -635 401 -792 191
-93 402 -100 558 -16 60 32 182 151 213 209 l22 40 -77 -38 c-112 -57 -185
-72 -312 -67 -294 13 -565 216 -663 497 -27 75 -31 100 -31 196 0 61 5 127 11
148 6 20 10 37 8 37 -2 0 -19 -19 -37 -42z"/>
<path d="M378 1673 c-119 -167 -152 -266 -151 -453 1 -150 22 -241 87 -375
136 -283 396 -490 727 -577 70 -19 110 -22 244 -22 154 0 163 1 254 32 167 58
279 144 374 288 64 98 70 115 26 82 -43 -33 -158 -91 -224 -113 -452 -150
-990 97 -1216 560 -67 139 -93 248 -92 400 0 74 6 145 16 185 8 36 14 66 13
67 -2 2 -28 -32 -58 -74z"/>
</g>
</svg>
